<mxfile host="app.diagrams.net" agent="Mozilla/5.0 (Windows NT 10.0; Win64; x64) AppleWebKit/537.36 (KHTML, like Gecko) Chrome/127.0.0.0 Safari/537.36 OPR/113.0.0.0" version="24.7.14">
  <diagram id="C5RBs43oDa-KdzZeNtuy" name="Page-1">
    <mxGraphModel dx="1245" dy="651" grid="1" gridSize="10" guides="1" tooltips="1" connect="1" arrows="1" fold="1" page="1" pageScale="1" pageWidth="827" pageHeight="1169" math="0" shadow="0">
      <root>
        <mxCell id="WIyWlLk6GJQsqaUBKTNV-0" />
        <mxCell id="WIyWlLk6GJQsqaUBKTNV-1" parent="WIyWlLk6GJQsqaUBKTNV-0" />
        <mxCell id="mZXr7cis613c63nue5KS-210" value="" style="edgeStyle=orthogonalEdgeStyle;rounded=0;orthogonalLoop=1;jettySize=auto;html=1;" edge="1" parent="WIyWlLk6GJQsqaUBKTNV-1" source="mZXr7cis613c63nue5KS-0" target="mZXr7cis613c63nue5KS-18">
          <mxGeometry relative="1" as="geometry" />
        </mxCell>
        <mxCell id="mZXr7cis613c63nue5KS-0" value="Menu utama&lt;div&gt;&lt;span class=&quot;hljs-number&quot;&gt;1.&lt;/span&gt; Lihat Karyawan&lt;/div&gt;&lt;div&gt;&lt;span style=&quot;background-color: initial;&quot; class=&quot;hljs-number&quot;&gt;2.&lt;/span&gt;&lt;span style=&quot;background-color: initial;&quot;&gt; Tambah Karyawan&lt;/span&gt;&lt;/div&gt;&lt;div&gt;&lt;span style=&quot;background-color: initial;&quot; class=&quot;hljs-number&quot;&gt;3.&lt;/span&gt;&lt;span style=&quot;background-color: initial;&quot;&gt; Perbarui Karyawan&lt;/span&gt;&lt;/div&gt;&lt;div&gt;&lt;span style=&quot;background-color: initial;&quot; class=&quot;hljs-number&quot;&gt;4.&lt;/span&gt;&lt;span style=&quot;background-color: initial;&quot;&gt; Hapus Karyawan&lt;/span&gt;&lt;/div&gt;&lt;div&gt;&lt;span style=&quot;background-color: initial;&quot; class=&quot;hljs-number&quot;&gt;5.&lt;/span&gt;&lt;span style=&quot;background-color: initial;&quot;&gt; Keluar&amp;nbsp;&lt;/span&gt;&lt;br&gt;&lt;/div&gt;" style="whiteSpace=wrap;html=1;aspect=fixed;" vertex="1" parent="WIyWlLk6GJQsqaUBKTNV-1">
          <mxGeometry x="376.25" y="413.75" width="127.5" height="127.5" as="geometry" />
        </mxCell>
        <mxCell id="mZXr7cis613c63nue5KS-50" value="" style="edgeStyle=orthogonalEdgeStyle;rounded=0;orthogonalLoop=1;jettySize=auto;html=1;" edge="1" parent="WIyWlLk6GJQsqaUBKTNV-1" source="mZXr7cis613c63nue5KS-18">
          <mxGeometry relative="1" as="geometry">
            <mxPoint x="440" y="760" as="targetPoint" />
          </mxGeometry>
        </mxCell>
        <mxCell id="mZXr7cis613c63nue5KS-18" value="Pilihan menu" style="rhombus;whiteSpace=wrap;html=1;" vertex="1" parent="WIyWlLk6GJQsqaUBKTNV-1">
          <mxGeometry x="380" y="584.5" width="120" height="130" as="geometry" />
        </mxCell>
        <mxCell id="mZXr7cis613c63nue5KS-78" value="" style="edgeStyle=orthogonalEdgeStyle;rounded=0;orthogonalLoop=1;jettySize=auto;html=1;" edge="1" parent="WIyWlLk6GJQsqaUBKTNV-1" target="mZXr7cis613c63nue5KS-77">
          <mxGeometry relative="1" as="geometry">
            <mxPoint x="440" y="760" as="sourcePoint" />
          </mxGeometry>
        </mxCell>
        <mxCell id="mZXr7cis613c63nue5KS-234" value="" style="edgeStyle=orthogonalEdgeStyle;rounded=0;orthogonalLoop=1;jettySize=auto;html=1;" edge="1" parent="WIyWlLk6GJQsqaUBKTNV-1">
          <mxGeometry relative="1" as="geometry">
            <mxPoint x="440" y="760" as="sourcePoint" />
            <mxPoint x="280" y="760" as="targetPoint" />
          </mxGeometry>
        </mxCell>
        <mxCell id="mZXr7cis613c63nue5KS-238" value="" style="edgeStyle=orthogonalEdgeStyle;rounded=0;orthogonalLoop=1;jettySize=auto;html=1;" edge="1" parent="WIyWlLk6GJQsqaUBKTNV-1">
          <mxGeometry relative="1" as="geometry">
            <mxPoint x="440" y="760" as="sourcePoint" />
            <mxPoint x="600" y="760" as="targetPoint" />
          </mxGeometry>
        </mxCell>
        <mxCell id="mZXr7cis613c63nue5KS-116" value="" style="edgeStyle=orthogonalEdgeStyle;rounded=0;orthogonalLoop=1;jettySize=auto;html=1;" edge="1" parent="WIyWlLk6GJQsqaUBKTNV-1">
          <mxGeometry relative="1" as="geometry">
            <mxPoint x="640" y="760" as="sourcePoint" />
            <mxPoint x="640" y="760" as="targetPoint" />
          </mxGeometry>
        </mxCell>
        <mxCell id="mZXr7cis613c63nue5KS-246" value="" style="edgeStyle=orthogonalEdgeStyle;rounded=0;orthogonalLoop=1;jettySize=auto;html=1;" edge="1" parent="WIyWlLk6GJQsqaUBKTNV-1" source="mZXr7cis613c63nue5KS-73">
          <mxGeometry relative="1" as="geometry">
            <mxPoint x="120" y="940" as="targetPoint" />
          </mxGeometry>
        </mxCell>
        <mxCell id="mZXr7cis613c63nue5KS-73" value="1. Lihat Karyawan" style="whiteSpace=wrap;html=1;sketch=0;pointerEvents=1;resizable=0;" vertex="1" parent="WIyWlLk6GJQsqaUBKTNV-1">
          <mxGeometry x="60" y="820" width="120" height="60" as="geometry" />
        </mxCell>
        <mxCell id="mZXr7cis613c63nue5KS-249" value="" style="edgeStyle=orthogonalEdgeStyle;rounded=0;orthogonalLoop=1;jettySize=auto;html=1;" edge="1" parent="WIyWlLk6GJQsqaUBKTNV-1" source="mZXr7cis613c63nue5KS-75">
          <mxGeometry relative="1" as="geometry">
            <mxPoint x="280" y="940" as="targetPoint" />
          </mxGeometry>
        </mxCell>
        <mxCell id="mZXr7cis613c63nue5KS-75" value="2. Tambah Karyawan" style="whiteSpace=wrap;html=1;sketch=0;pointerEvents=1;resizable=0;" vertex="1" parent="WIyWlLk6GJQsqaUBKTNV-1">
          <mxGeometry x="220" y="820" width="120" height="60" as="geometry" />
        </mxCell>
        <mxCell id="mZXr7cis613c63nue5KS-228" value="" style="edgeStyle=orthogonalEdgeStyle;rounded=0;orthogonalLoop=1;jettySize=auto;html=1;" edge="1" parent="WIyWlLk6GJQsqaUBKTNV-1" source="mZXr7cis613c63nue5KS-77">
          <mxGeometry relative="1" as="geometry">
            <mxPoint x="440" y="940" as="targetPoint" />
          </mxGeometry>
        </mxCell>
        <mxCell id="mZXr7cis613c63nue5KS-77" value="3. Perbarui Karyawan" style="whiteSpace=wrap;html=1;sketch=0;pointerEvents=1;resizable=0;" vertex="1" parent="WIyWlLk6GJQsqaUBKTNV-1">
          <mxGeometry x="380" y="820" width="120" height="60" as="geometry" />
        </mxCell>
        <mxCell id="mZXr7cis613c63nue5KS-256" value="" style="edgeStyle=orthogonalEdgeStyle;rounded=0;orthogonalLoop=1;jettySize=auto;html=1;" edge="1" parent="WIyWlLk6GJQsqaUBKTNV-1" source="mZXr7cis613c63nue5KS-79">
          <mxGeometry relative="1" as="geometry">
            <mxPoint x="600" y="940" as="targetPoint" />
          </mxGeometry>
        </mxCell>
        <mxCell id="mZXr7cis613c63nue5KS-79" value="4. Hapus Karyawan" style="whiteSpace=wrap;html=1;sketch=0;pointerEvents=1;resizable=0;" vertex="1" parent="WIyWlLk6GJQsqaUBKTNV-1">
          <mxGeometry x="540" y="820" width="120" height="60" as="geometry" />
        </mxCell>
        <mxCell id="mZXr7cis613c63nue5KS-221" value="" style="edgeStyle=orthogonalEdgeStyle;rounded=0;orthogonalLoop=1;jettySize=auto;html=1;" edge="1" parent="WIyWlLk6GJQsqaUBKTNV-1" source="mZXr7cis613c63nue5KS-81">
          <mxGeometry relative="1" as="geometry">
            <mxPoint x="880" y="850" as="targetPoint" />
          </mxGeometry>
        </mxCell>
        <mxCell id="mZXr7cis613c63nue5KS-253" value="" style="edgeStyle=orthogonalEdgeStyle;rounded=0;orthogonalLoop=1;jettySize=auto;html=1;" edge="1" parent="WIyWlLk6GJQsqaUBKTNV-1" source="mZXr7cis613c63nue5KS-81">
          <mxGeometry relative="1" as="geometry">
            <mxPoint x="760" y="940" as="targetPoint" />
          </mxGeometry>
        </mxCell>
        <mxCell id="mZXr7cis613c63nue5KS-81" value="5. Keluar" style="whiteSpace=wrap;html=1;sketch=0;pointerEvents=1;resizable=0;" vertex="1" parent="WIyWlLk6GJQsqaUBKTNV-1">
          <mxGeometry x="700" y="820" width="120" height="60" as="geometry" />
        </mxCell>
        <mxCell id="mZXr7cis613c63nue5KS-156" value="" style="edgeStyle=orthogonalEdgeStyle;rounded=0;orthogonalLoop=1;jettySize=auto;html=1;" edge="1" parent="WIyWlLk6GJQsqaUBKTNV-1">
          <mxGeometry relative="1" as="geometry">
            <mxPoint x="840" y="760" as="sourcePoint" />
            <mxPoint x="840" y="760" as="targetPoint" />
          </mxGeometry>
        </mxCell>
        <mxCell id="mZXr7cis613c63nue5KS-139" value="" style="edgeStyle=orthogonalEdgeStyle;rounded=0;orthogonalLoop=1;jettySize=auto;html=1;" edge="1" parent="WIyWlLk6GJQsqaUBKTNV-1">
          <mxGeometry relative="1" as="geometry">
            <mxPoint x="440" y="940" as="sourcePoint" />
            <mxPoint x="440" y="940" as="targetPoint" />
          </mxGeometry>
        </mxCell>
        <mxCell id="mZXr7cis613c63nue5KS-137" value="" style="edgeStyle=orthogonalEdgeStyle;rounded=0;orthogonalLoop=1;jettySize=auto;html=1;" edge="1" parent="WIyWlLk6GJQsqaUBKTNV-1">
          <mxGeometry relative="1" as="geometry">
            <mxPoint x="240" y="940" as="sourcePoint" />
            <mxPoint x="240" y="940" as="targetPoint" />
          </mxGeometry>
        </mxCell>
        <mxCell id="mZXr7cis613c63nue5KS-149" value="End" style="ellipse;whiteSpace=wrap;html=1;" vertex="1" parent="WIyWlLk6GJQsqaUBKTNV-1">
          <mxGeometry x="390" y="1044" width="100" height="70" as="geometry" />
        </mxCell>
        <mxCell id="mZXr7cis613c63nue5KS-173" value="" style="edgeStyle=orthogonalEdgeStyle;rounded=0;orthogonalLoop=1;jettySize=auto;html=1;" edge="1" parent="WIyWlLk6GJQsqaUBKTNV-1">
          <mxGeometry relative="1" as="geometry">
            <mxPoint x="960" y="445" as="sourcePoint" />
            <mxPoint x="960" y="445" as="targetPoint" />
          </mxGeometry>
        </mxCell>
        <mxCell id="mZXr7cis613c63nue5KS-178" value="" style="edgeStyle=orthogonalEdgeStyle;rounded=0;orthogonalLoop=1;jettySize=auto;html=1;" edge="1" parent="WIyWlLk6GJQsqaUBKTNV-1">
          <mxGeometry relative="1" as="geometry">
            <mxPoint x="510" y="445" as="sourcePoint" />
            <mxPoint x="510" y="445" as="targetPoint" />
          </mxGeometry>
        </mxCell>
        <mxCell id="mZXr7cis613c63nue5KS-180" value="" style="edgeStyle=orthogonalEdgeStyle;rounded=0;orthogonalLoop=1;jettySize=auto;html=1;" edge="1" parent="WIyWlLk6GJQsqaUBKTNV-1">
          <mxGeometry relative="1" as="geometry">
            <mxPoint x="510" y="445" as="sourcePoint" />
            <mxPoint x="510" y="445" as="targetPoint" />
          </mxGeometry>
        </mxCell>
        <mxCell id="mZXr7cis613c63nue5KS-209" value="" style="edgeStyle=orthogonalEdgeStyle;rounded=0;orthogonalLoop=1;jettySize=auto;html=1;" edge="1" parent="WIyWlLk6GJQsqaUBKTNV-1" source="mZXr7cis613c63nue5KS-193" target="mZXr7cis613c63nue5KS-0">
          <mxGeometry relative="1" as="geometry" />
        </mxCell>
        <mxCell id="mZXr7cis613c63nue5KS-193" value="Start" style="ellipse;whiteSpace=wrap;html=1;" vertex="1" parent="WIyWlLk6GJQsqaUBKTNV-1">
          <mxGeometry x="390" y="300" width="100" height="70" as="geometry" />
        </mxCell>
        <mxCell id="mZXr7cis613c63nue5KS-211" value="" style="edgeStyle=orthogonalEdgeStyle;rounded=0;orthogonalLoop=1;jettySize=auto;html=1;" edge="1" parent="WIyWlLk6GJQsqaUBKTNV-1" target="mZXr7cis613c63nue5KS-0">
          <mxGeometry relative="1" as="geometry">
            <mxPoint x="640" y="477.5" as="sourcePoint" />
          </mxGeometry>
        </mxCell>
        <mxCell id="mZXr7cis613c63nue5KS-260" value="" style="edgeStyle=orthogonalEdgeStyle;rounded=0;orthogonalLoop=1;jettySize=auto;html=1;" edge="1" parent="WIyWlLk6GJQsqaUBKTNV-1">
          <mxGeometry relative="1" as="geometry">
            <mxPoint x="880" y="850" as="sourcePoint" />
            <mxPoint x="880" y="724.5" as="targetPoint" />
          </mxGeometry>
        </mxCell>
        <mxCell id="mZXr7cis613c63nue5KS-227" value="" style="edgeStyle=orthogonalEdgeStyle;rounded=0;orthogonalLoop=1;jettySize=auto;html=1;" edge="1" parent="WIyWlLk6GJQsqaUBKTNV-1">
          <mxGeometry relative="1" as="geometry">
            <mxPoint x="440" y="940" as="sourcePoint" />
            <mxPoint x="440" y="940" as="targetPoint" />
          </mxGeometry>
        </mxCell>
        <mxCell id="mZXr7cis613c63nue5KS-230" value="" style="edgeStyle=orthogonalEdgeStyle;rounded=0;orthogonalLoop=1;jettySize=auto;html=1;" edge="1" parent="WIyWlLk6GJQsqaUBKTNV-1" target="mZXr7cis613c63nue5KS-229">
          <mxGeometry relative="1" as="geometry">
            <mxPoint x="440" y="940" as="sourcePoint" />
          </mxGeometry>
        </mxCell>
        <mxCell id="mZXr7cis613c63nue5KS-229" value="" style="shape=waypoint;sketch=0;size=6;pointerEvents=1;points=[];fillColor=default;resizable=0;rotatable=0;perimeter=centerPerimeter;snapToPoint=1;" vertex="1" parent="WIyWlLk6GJQsqaUBKTNV-1">
          <mxGeometry x="430" y="1030" width="20" height="20" as="geometry" />
        </mxCell>
        <mxCell id="mZXr7cis613c63nue5KS-236" value="" style="edgeStyle=orthogonalEdgeStyle;rounded=0;orthogonalLoop=1;jettySize=auto;html=1;" edge="1" parent="WIyWlLk6GJQsqaUBKTNV-1">
          <mxGeometry relative="1" as="geometry">
            <mxPoint x="280" y="760" as="sourcePoint" />
            <mxPoint x="120" y="760" as="targetPoint" />
          </mxGeometry>
        </mxCell>
        <mxCell id="mZXr7cis613c63nue5KS-243" value="" style="edgeStyle=orthogonalEdgeStyle;rounded=0;orthogonalLoop=1;jettySize=auto;html=1;" edge="1" parent="WIyWlLk6GJQsqaUBKTNV-1" target="mZXr7cis613c63nue5KS-75">
          <mxGeometry relative="1" as="geometry">
            <mxPoint x="280" y="760" as="sourcePoint" />
          </mxGeometry>
        </mxCell>
        <mxCell id="mZXr7cis613c63nue5KS-244" value="" style="edgeStyle=orthogonalEdgeStyle;rounded=0;orthogonalLoop=1;jettySize=auto;html=1;" edge="1" parent="WIyWlLk6GJQsqaUBKTNV-1" target="mZXr7cis613c63nue5KS-73">
          <mxGeometry relative="1" as="geometry">
            <mxPoint x="120" y="760" as="sourcePoint" />
          </mxGeometry>
        </mxCell>
        <mxCell id="mZXr7cis613c63nue5KS-240" value="" style="edgeStyle=orthogonalEdgeStyle;rounded=0;orthogonalLoop=1;jettySize=auto;html=1;" edge="1" parent="WIyWlLk6GJQsqaUBKTNV-1">
          <mxGeometry relative="1" as="geometry">
            <mxPoint x="600" y="760" as="sourcePoint" />
            <mxPoint x="760" y="760" as="targetPoint" />
          </mxGeometry>
        </mxCell>
        <mxCell id="mZXr7cis613c63nue5KS-242" value="" style="edgeStyle=orthogonalEdgeStyle;rounded=0;orthogonalLoop=1;jettySize=auto;html=1;" edge="1" parent="WIyWlLk6GJQsqaUBKTNV-1" target="mZXr7cis613c63nue5KS-79">
          <mxGeometry relative="1" as="geometry">
            <mxPoint x="600" y="760" as="sourcePoint" />
          </mxGeometry>
        </mxCell>
        <mxCell id="mZXr7cis613c63nue5KS-241" value="" style="edgeStyle=orthogonalEdgeStyle;rounded=0;orthogonalLoop=1;jettySize=auto;html=1;" edge="1" parent="WIyWlLk6GJQsqaUBKTNV-1" target="mZXr7cis613c63nue5KS-81">
          <mxGeometry relative="1" as="geometry">
            <mxPoint x="760" y="760" as="sourcePoint" />
          </mxGeometry>
        </mxCell>
        <mxCell id="mZXr7cis613c63nue5KS-248" value="" style="edgeStyle=orthogonalEdgeStyle;rounded=0;orthogonalLoop=1;jettySize=auto;html=1;" edge="1" parent="WIyWlLk6GJQsqaUBKTNV-1">
          <mxGeometry relative="1" as="geometry">
            <mxPoint x="120" y="940" as="sourcePoint" />
            <mxPoint x="280" y="940" as="targetPoint" />
          </mxGeometry>
        </mxCell>
        <mxCell id="mZXr7cis613c63nue5KS-251" value="" style="edgeStyle=orthogonalEdgeStyle;rounded=0;orthogonalLoop=1;jettySize=auto;html=1;" edge="1" parent="WIyWlLk6GJQsqaUBKTNV-1">
          <mxGeometry relative="1" as="geometry">
            <mxPoint x="280" y="940" as="sourcePoint" />
            <mxPoint x="440" y="940" as="targetPoint" />
          </mxGeometry>
        </mxCell>
        <mxCell id="mZXr7cis613c63nue5KS-255" value="" style="edgeStyle=orthogonalEdgeStyle;rounded=0;orthogonalLoop=1;jettySize=auto;html=1;" edge="1" parent="WIyWlLk6GJQsqaUBKTNV-1">
          <mxGeometry relative="1" as="geometry">
            <mxPoint x="760" y="940" as="sourcePoint" />
            <mxPoint x="600" y="940" as="targetPoint" />
          </mxGeometry>
        </mxCell>
        <mxCell id="mZXr7cis613c63nue5KS-258" value="" style="edgeStyle=orthogonalEdgeStyle;rounded=0;orthogonalLoop=1;jettySize=auto;html=1;" edge="1" parent="WIyWlLk6GJQsqaUBKTNV-1">
          <mxGeometry relative="1" as="geometry">
            <mxPoint x="600" y="940" as="sourcePoint" />
            <mxPoint x="440" y="940" as="targetPoint" />
          </mxGeometry>
        </mxCell>
        <mxCell id="mZXr7cis613c63nue5KS-262" value="" style="edgeStyle=orthogonalEdgeStyle;rounded=0;orthogonalLoop=1;jettySize=auto;html=1;" edge="1" parent="WIyWlLk6GJQsqaUBKTNV-1">
          <mxGeometry relative="1" as="geometry">
            <mxPoint x="880" y="724.5" as="sourcePoint" />
            <mxPoint x="880" y="595" as="targetPoint" />
          </mxGeometry>
        </mxCell>
        <mxCell id="mZXr7cis613c63nue5KS-264" value="" style="edgeStyle=orthogonalEdgeStyle;rounded=0;orthogonalLoop=1;jettySize=auto;html=1;" edge="1" parent="WIyWlLk6GJQsqaUBKTNV-1">
          <mxGeometry relative="1" as="geometry">
            <mxPoint x="880" y="595" as="sourcePoint" />
            <mxPoint x="880" y="477.5" as="targetPoint" />
          </mxGeometry>
        </mxCell>
        <mxCell id="mZXr7cis613c63nue5KS-266" value="" style="edgeStyle=orthogonalEdgeStyle;rounded=0;orthogonalLoop=1;jettySize=auto;html=1;" edge="1" parent="WIyWlLk6GJQsqaUBKTNV-1">
          <mxGeometry relative="1" as="geometry">
            <mxPoint x="880" y="477.5" as="sourcePoint" />
            <mxPoint x="780" y="477.5" as="targetPoint" />
          </mxGeometry>
        </mxCell>
        <mxCell id="mZXr7cis613c63nue5KS-268" value="" style="edgeStyle=orthogonalEdgeStyle;rounded=0;orthogonalLoop=1;jettySize=auto;html=1;" edge="1" parent="WIyWlLk6GJQsqaUBKTNV-1">
          <mxGeometry relative="1" as="geometry">
            <mxPoint x="780" y="477.5" as="sourcePoint" />
            <mxPoint x="640" y="477.5" as="targetPoint" />
          </mxGeometry>
        </mxCell>
      </root>
    </mxGraphModel>
  </diagram>
</mxfile>
